<svg width="100" height="100" viewBox="0 0 100 100" fill="none" xmlns="http://www.w3.org/2000/svg">
<rect width="100" height="100" fill="white"/>
<path d="M75.0477 20.5634L75.0478 20.5635C75.2298 20.875 75.2679 21.0997 75.2432 21.2957C75.2162 21.5087 75.1019 21.7893 74.7945 22.1813C71.9042 25.8663 70.4394 28.4302 69.5674 31.4401L69.5674 31.4401C69.244 32.5566 69.1795 33.4639 69.0646 37.3294C68.9904 39.8221 68.8205 42.6847 68.6914 43.6902L69.4353 43.7857L68.6914 43.6903C68.0161 48.9522 66.7929 53.0337 64.8586 56.5783L65.5169 56.9375L64.8586 56.5783C64.3611 57.4899 64.1213 57.9074 63.9342 58.1461C63.8016 58.3153 63.7234 58.3682 63.4479 58.4954C63.4479 58.4955 63.4479 58.4955 63.4479 58.4955L62.8854 58.7553H52.1445C46.8299 58.7553 44.1126 58.7533 42.6446 58.7158C41.2358 58.6799 41.0881 58.609 40.9483 58.5419C40.941 58.5384 40.9336 58.5349 40.9261 58.5314C40.6063 58.3819 40.1571 57.9103 39.657 56.9071C39.1742 55.9385 38.7048 54.5999 38.2695 52.9214C37.4002 49.5689 36.6927 44.9622 36.2568 39.4856L36.2568 39.4856C36.2014 38.7909 36.0862 37.5497 35.9618 36.2091C35.9132 35.6856 35.8632 35.147 35.8149 34.6198C35.6481 32.8029 35.5057 31.1727 35.4913 30.6723C35.4951 30.6594 35.4991 30.6446 35.5028 30.6289C35.5132 30.5853 35.533 30.4888 35.5212 30.3671C35.5077 30.2284 35.4545 30.074 35.3395 29.9397C35.234 29.8164 35.1142 29.7542 35.0376 29.7231C34.9081 29.6705 34.7857 29.6621 34.747 29.6594L34.7445 29.6592C34.6881 29.6553 34.6266 29.6544 34.5709 29.6542C34.5214 29.654 34.4517 29.6544 34.3687 29.6548C34.2796 29.6553 34.1752 29.6558 34.0639 29.6558C33.7612 29.6558 33.4282 29.6811 33.1309 29.7211C32.8489 29.759 32.5396 29.8177 32.312 29.9048L32.3119 29.9048C31.8872 30.0674 31.4661 30.387 31.1463 30.7044C30.842 31.0065 30.5028 31.4315 30.387 31.8711L30.3869 31.8714C30.3685 31.9411 30.3503 32.059 30.3366 32.148C30.3191 32.262 30.2964 32.4168 30.2695 32.6061C30.2156 32.9854 30.1433 33.5115 30.0578 34.1454C29.8869 35.4136 29.6628 37.1181 29.4266 38.9531L29.4266 38.9531C28.9959 42.3019 28.7567 44.0681 28.5454 45.0705C28.4399 45.5705 28.3523 45.8232 28.279 45.9685C28.2206 46.0841 28.1662 46.1446 28.0544 46.2374C27.94 46.3322 27.6841 46.4718 27.3581 46.59C27.0301 46.709 26.7524 46.7623 26.6177 46.7614C26.3811 46.7597 26.0613 46.6753 25.7378 46.5059C25.4153 46.337 25.1551 46.118 25.007 45.9129L25.007 45.9129C24.8667 45.7187 24.8442 45.6832 24.8188 45.5962C24.784 45.477 24.7493 45.2444 24.75 44.6917C24.7514 43.6078 24.8815 41.5865 25.1481 37.4465L25.1593 37.2721C25.1593 37.2721 25.1593 37.2721 25.1593 37.2721C25.2868 35.2912 25.4075 33.6806 25.5158 32.4975C25.6276 31.2768 25.7203 30.5907 25.7768 30.3901C26.6906 27.1534 29.3039 25.1174 33.4303 24.6879C33.4303 24.6879 33.4303 24.6879 33.4303 24.6879L34.9115 24.5338L35.5608 24.4662L35.5834 23.8138L35.6407 22.1609C35.6407 22.1609 35.6407 22.1608 35.6407 22.1608C35.6733 21.2214 35.73 20.8323 35.8355 20.5959C35.9133 20.4214 36.0406 20.2763 36.5392 19.9654L36.8846 19.75H55.4428C64.4364 19.75 69.1283 19.7529 71.6392 19.7881C72.8996 19.8058 73.5876 19.8315 73.9888 19.8664C74.3524 19.8981 74.4158 19.9327 74.4342 19.9427C74.4353 19.9434 74.4363 19.9439 74.4371 19.9443C74.606 20.0273 74.8843 20.2836 75.0477 20.5634ZM35.4705 30.7367C35.4704 30.7368 35.4708 30.7353 35.4718 30.7323C35.471 30.7351 35.4705 30.7367 35.4705 30.7367ZM35.0391 74.9492L35.0391 74.9492C35.7718 71.001 36.4742 68.4134 37.3375 66.6844C38.177 65.0031 39.1518 64.1646 40.4746 63.6743C40.5248 63.6557 40.6371 63.6222 40.9802 63.5931C41.3236 63.564 41.8533 63.5426 42.7167 63.5284C44.4393 63.5 47.4204 63.5014 52.7414 63.515L64.4725 63.545L65.1248 63.8382L65.1249 63.8383C67.2256 64.7823 68.5918 67.1754 69.8781 73.5192C70.4555 76.3674 70.7109 77.916 70.6844 78.8438C70.6717 79.2861 70.5947 79.5066 70.5153 79.6373C70.4378 79.7648 70.3104 79.8862 70.0339 80.0427C69.97 80.0789 69.9634 80.0812 69.95 80.0857L69.9498 80.0858C69.9295 80.0927 69.8714 80.1094 69.7255 80.1274C69.422 80.1648 68.8661 80.1934 67.7448 80.2125C65.5193 80.2505 61.2037 80.2504 52.5649 80.2499C44.2224 80.2495 39.9016 80.2467 37.61 80.211C36.4579 80.1931 35.8456 80.167 35.4991 80.1323C35.3274 80.1151 35.2493 80.0983 35.2165 80.0891C35.204 80.0856 35.2039 80.0856 35.2009 80.0836C35.2001 80.083 35.1991 80.0823 35.1975 80.0814C34.93 79.9198 34.7949 79.7956 34.712 79.6733C34.6336 79.5575 34.5613 79.3832 34.5329 79.0528C34.4712 78.3349 34.6298 77.1542 35.0391 74.9492Z" stroke="#222222" stroke-width="1.5"/>
</svg>
