<svg width="100" height="100" viewBox="0 0 100 100" fill="none" xmlns="http://www.w3.org/2000/svg">
<rect width="100" height="100" fill="white"/>
<path d="M32.5107 19.8905L32.5106 19.8907C32.3485 20.0613 32.0264 20.5555 31.8408 20.9601L31.8407 20.9603C31.6809 21.3082 31.618 21.4805 31.5753 21.7601C31.5262 22.0829 31.5057 22.5442 31.4815 23.4711C31.4239 25.6791 31.6274 26.5904 32.0957 27.3056C32.0957 27.3056 32.0957 27.3056 32.0958 27.3056L32.1008 27.3132C32.179 27.4327 32.2574 27.5523 32.3156 27.6561C32.3705 27.754 32.4591 27.9242 32.4807 28.1355C32.5071 28.3938 32.426 28.6028 32.3325 28.7533C32.2655 28.8611 32.176 28.9615 32.1237 29.0202C32.1197 29.0246 32.116 29.0288 32.1125 29.0327L32.1125 29.0327C31.7416 29.4501 26.9853 35.1682 26.246 36.0863L25.6622 35.6162L26.246 36.0863C25.8767 36.545 25.7692 36.821 25.7525 36.9736C25.7426 37.0634 25.7523 37.173 25.9443 37.3664L25.9443 37.3665C26.1577 37.5816 26.2621 37.6147 26.4109 37.6196C26.6527 37.6276 27.0488 37.5452 27.844 37.2735C27.844 37.2735 27.844 37.2735 27.844 37.2735L29.2131 36.8054L30.6813 36.3036L30.1626 37.7658L29.7192 39.016C29.7192 39.016 29.7192 39.016 29.7191 39.0161C29.4865 39.6721 29.1526 40.8473 28.9842 41.6056L28.9842 41.6057L28.6849 42.9529V59.504V76.0125L28.9605 76.8167L28.2511 77.0599L28.9606 76.8167C29.679 78.9133 31.4046 80.5219 33.5597 81.0995M32.5107 19.8905L33.5599 81.0995C33.5599 81.0995 33.5598 81.0995 33.5597 81.0995M32.5107 19.8905C32.6845 19.7075 32.9813 19.4865 33.3416 19.2861C33.6843 19.0955 34.0381 18.9492 34.3276 18.8756C34.3365 18.8749 34.3487 18.874 34.3648 18.8731C34.423 18.8695 34.5077 18.8657 34.6204 18.8618C34.8447 18.854 35.1628 18.8463 35.5664 18.8387C36.3725 18.8237 37.5077 18.8097 38.8896 18.7975C41.6529 18.7732 45.3958 18.7562 49.451 18.7524C55.7777 18.7465 59.4875 18.7503 61.6983 18.7773C62.8049 18.7908 63.5258 18.8099 64.0075 18.8359C64.5014 18.8624 64.6976 18.8944 64.7834 18.9169C65.3962 19.0777 65.8552 19.3117 66.2264 19.6325C66.5999 19.9552 66.922 20.3982 67.214 21.0301L67.2141 21.0302M32.5107 19.8905L67.2141 21.0302M33.5597 81.0995C33.5594 81.0994 33.56 81.0995 33.5617 81.0998C33.5729 81.1018 33.6316 81.1121 33.7723 81.1242C33.9233 81.1371 34.1351 81.1494 34.4235 81.1607C34.9996 81.1833 35.8537 81.2008 37.0842 81.2141C39.5434 81.2407 43.4803 81.25 49.6478 81.25H65.1408L65.8908 80.9772C67.9335 80.2343 69.2556 78.9364 70.0469 76.8914L70.0469 76.8913L70.3405 76.1328L70.3807 60.3202C70.3949 54.7103 70.3938 50.6246 70.3756 47.8229C70.3572 44.9944 70.3212 43.5248 70.2731 43.0979C70.1071 41.6246 69.645 39.7184 69.1857 38.5792C69.0909 38.344 69.0095 38.1216 68.9553 37.9502C68.9296 37.8689 68.9032 37.7776 68.8868 37.6949C68.8805 37.6628 68.8649 37.5815 68.8669 37.4863C68.8677 37.4489 68.8711 37.3233 68.9349 37.1815C68.9702 37.1031 69.0383 36.988 69.1651 36.8909C69.3023 36.7858 69.4652 36.7352 69.6243 36.7352C69.6933 36.7352 69.7479 36.7452 69.7583 36.747C69.7793 36.7506 69.7969 36.7545 69.8078 36.7571C69.8302 36.7622 69.8514 36.7679 69.8676 36.7724C69.9013 36.7817 69.9416 36.7938 69.9842 36.8069C70.0707 36.8336 70.1871 36.8709 70.3233 36.9156C70.5967 37.0052 70.9616 37.1282 71.3528 37.2628L71.3528 37.2628C72.1819 37.5483 72.5529 37.6284 72.7584 37.6205C72.8283 37.6178 72.8549 37.6048 72.8761 37.5922C72.9107 37.5715 72.9728 37.5228 73.0811 37.3931C73.2987 37.1325 73.3063 36.7604 73.1024 36.4928L33.5597 81.0995ZM67.2141 21.0302C67.3509 21.3262 67.41 21.4929 67.4511 21.7755C67.4983 22.0998 67.5199 22.568 67.5435 23.4711C67.6011 25.6792 67.3976 26.5905 66.9292 27.3056L66.9292 27.3056M67.2141 21.0302L66.9292 27.3056M66.9292 27.3056L66.925 27.3121M66.9292 27.3056L66.925 27.3121M66.925 27.3121C66.8465 27.4319 66.7679 27.5519 66.7096 27.6561M66.925 27.3121L66.7096 27.6561M66.7096 27.6561C66.6546 27.7542 66.5664 27.9239 66.5446 28.1343M66.7096 27.6561L66.5446 28.1343M66.5446 28.1343C66.518 28.3913 66.5976 28.6 66.6908 28.751M66.5446 28.1343L66.6908 28.751M66.6908 28.751C66.7577 28.8595 66.8471 28.9603 66.8992 29.0191M66.6908 28.751L66.8992 29.0191M66.8992 29.0191C66.903 29.0234 66.9066 29.0274 66.91 29.0312M66.8992 29.0191L66.91 29.0312M66.91 29.0312C67.3534 29.533 72.8025 36.0996 73.1023 36.4927L66.91 29.0312Z" stroke="#222222" stroke-width="1.5"/>
</svg>
